<svg xmlns="http://www.w3.org/2000/svg" width="19" height="18" viewBox="0 0 19 18">
    <g fill="none" fill-rule="evenodd">
        <path fill="#999" d="M3.18 9.707v4.56l.016.01 11.26-11.261A1.997 1.997 0 0 1 14.448 3h-4.56L3.18 9.707zm0-1.414v-4.56A2.01 2.01 0 0 0 3.912 3h4.56L3.18 8.293zM8.473 15h-4.56a1.997 1.997 0 0 0-.01-.016l11.26-11.26.017.008v4.56L8.473 15zm1.414 0h4.56a2.01 2.01 0 0 1 .733-.732v-4.56L9.887 15zM3.912 1A2 2 0 0 0 .18 2a2 2 0 0 0 1 1.732v10.536a2 2 0 0 0 1 3.732 2 2 0 0 0 1.732-1h10.535a2 2 0 0 0 3.733-1 2 2 0 0 0-1-1.732V3.732a2 2 0 0 0-1-3.732 2 2 0 0 0-1.733 1H3.912z"/>
        <path d="M-2.82-3h24v24h-24z"/>
    </g>
</svg>
