<svg xmlns="http://www.w3.org/2000/svg" width="48" height="38" viewBox="0 0 48 38">
    <path fill="#FFF" fill-rule="evenodd" d="M35.574 19.148l-7.517-2.82v19.149c-2.915.148-4.756 0-4.756 0l-.153-25.829L45.085 19 23.455 0s.307 0-5.676 4.898V1.336l2.761 1.187L17.32.148l-6.904 6.383v4.008C7.5 13.953 4.74 15.29 3.052 17.22c-3.989 4.304-3.989 9.351-.46 13.36C5.66 33.843 12.715 38 23.914 38c10.432 0 19.79-4.305 24.085-9.797-3.068 2.227-6.443 4.453-12.426 6.086V19.15zm-27 11.579C2.591 28.5 3.512 24.047 5.2 21.523c1.841-2.82 3.375-3.117 3.375-3.117v12.32zm10.432-6.383l-5.983 1.336v-6.828l5.983-2.375v7.867z"/>
</svg>
