<svg xmlns="http://www.w3.org/2000/svg" width="27" height="26" viewBox="0 0 27 26">
    <g fill="#FFF" fill-rule="evenodd">
        <path d="M13.155 25.867c7.266 0 13.155-5.79 13.155-12.933S20.42 0 13.155 0 0 5.79 0 12.934c0 7.142 5.89 12.933 13.155 12.933zm0-2.874c5.651 0 10.232-4.504 10.232-10.06 0-5.555-4.581-10.059-10.232-10.059-5.65 0-10.232 4.504-10.232 10.06 0 5.555 4.581 10.059 10.232 10.059z"/>
        <path d="M14.617 11.472V7.185h-2.924v4.287H7.407v2.923h4.286v4.287h2.924v-4.287h4.286v-2.923h-4.286z"/>
    </g>
</svg>
